<svg class="svg-icon" style="width: 1em;height: 1em;vertical-align: middle;fill: currentColor;overflow: hidden;" viewBox="0 0 1024 1024" version="1.1" xmlns="http://www.w3.org/2000/svg"><path d="M443.641 268.102c0 16.185 13.117 29.302 29.295 29.302h290.195a29.299 29.299 0 1 0 0-58.598H472.936c-16.178 0.001-29.295 13.119-29.295 29.296zM376.667 372.741c0 15.416 12.495 27.91 27.911 27.91h438.085c15.421 0 27.915-12.5 27.915-27.916-0.01-15.414-12.51-27.903-27.926-27.903H404.578c-15.416 0.001-27.911 12.499-27.911 27.909zM263.211 191.352h70.667c9.767 0 17.682-11.227 17.682-25.095 0-13.864-7.915-25.113-17.682-25.113h-70.667c-9.778 0-17.682 11.25-17.682 25.113 0.001 13.858 7.904 25.095 17.682 25.095zM89.269 191.352h100.457c13.848 0 25.107-11.227 25.107-25.095 0-13.864-11.26-25.113-25.107-25.113H89.269c-13.875 0-25.124 11.25-25.124 25.113a25.132 25.132 0 0 0 7.361 17.751 25.118 25.118 0 0 0 17.763 7.344zM887.111 451.086a29.324 29.324 0 0 0-20.721-8.58h-80.938c-16.189 0-29.307 13.123-29.307 29.308 0 16.182 13.117 29.305 29.307 29.305h80.938a29.288 29.288 0 0 0 20.721-8.586 29.31 29.31 0 0 0 8.58-20.724 29.322 29.322 0 0 0-8.58-20.723zM690.252 442.506H130.023c-24.055 0-43.558 13.117-43.558 29.303 0 16.205 19.502 29.31 43.558 29.31h560.229c24.098 0 43.589-13.117 43.589-29.31 0-16.185-19.491-29.303-43.589-29.303z" fill="#E3EDF1" /><path d="M256.683 531.789a30.712 30.712 0 0 1-8.994 21.719 30.661 30.661 0 0 1-21.714 8.988H184.12c-16.955 0-30.697-13.74-30.697-30.697 0-16.951 13.742-30.691 30.697-30.691h41.856a30.695 30.695 0 0 1 30.707 30.681z m0 0" fill="#E3EDF1" /><path d="M558.047 591.787a33.522 33.522 0 0 1-9.805 23.689 33.495 33.495 0 0 1-23.685 9.811H44.611a33.492 33.492 0 0 1-28.999-16.742 33.46 33.46 0 0 1 0-33.488 33.483 33.483 0 0 1 28.999-16.748h479.946a33.482 33.482 0 0 1 23.679 9.805 33.459 33.459 0 0 1 9.811 23.673z m429.73 118.303c-0.006 18.326-14.857 33.18-33.184 33.186H554.959c-17.993-0.469-32.329-15.191-32.329-33.186 0-17.996 14.336-32.715 32.329-33.186h399.624c18.326 0.01 33.183 14.862 33.194 33.186z m0 0" fill="#E3EDF1" /><path d="M652.924 767.293a24.01 24.01 0 0 1-24.028 24.015h-32.893c-13.263 0-24.018-10.748-24.018-24.016 0-13.264 10.755-24.018 24.018-24.018h32.893c13.262 0.005 24.017 10.755 24.028 24.019z m0 0" fill="#E3EDF1" /><path d="M920.825 815.24a23.93 23.93 0 0 1-7.018 16.932 23.967 23.967 0 0 1-16.935 6.996H450.809c-13.215 0-23.926-10.713-23.926-23.928s10.711-23.932 23.926-23.932h446.064c13.23 0.001 23.952 10.712 23.952 23.932z m92.054 0c0 13.209-10.707 23.922-23.921 23.928h-19.104c-13.22 0-23.932-10.713-23.932-23.928s10.712-23.932 23.932-23.932h19.104c13.198 0.001 23.921 10.712 23.921 23.932z m0 0" fill="#E3EDF1" /><path d="M750 790c0 6.627-5.373 12-12 12H258c-6.627 0-12-5.373-12-12V227c0-6.627 5.373-12 12-12h480c6.627 0 12 5.373 12 12v563z" fill="#FFFFFF" /><path d="M356.333 389.555l17.909-17.922 45.316-45.28-8.441-8.434-54.788 54.765L328.95 345.3l-8.439 8.433 17.922 17.908z" fill="#CEE7EE" /><path d="M601.141 210.617h-78.214v-39.085H471.49v39.085h-78.28v51.48h207.931z" fill="#5AADC7" /><path d="M356.333 546.05l17.904-17.919 45.325-45.324-8.442-8.432-54.795 54.814-27.375-27.421-8.447 8.453 17.93 17.913zM471.49 680.123h12.285v12.35H471.49zM471.49 523.629h90.541v12.306H471.49zM471.49 367.134h207.862v12.328H471.49zM356.333 685.676l-27.383-27.385-8.435 8.427 17.918 17.891 17.9 17.913 17.911-17.924 45.319-45.264-8.451-8.458z" fill="#CEE7EE" /><path d="M274.76 809.813c-20.9 0-38-17.1-38-38V248.617c0-20.9 17.1-38 38-38h77.521c20.9 0 38 2.773 38 6.164s-17.1 6.164-38 6.164h-65.258c-20.9 0-38 17.1-38 38v498.52c0 20.9 17.1 38 38 38h412.752c20.9 0 38 2.778 38 6.175s-17.1 6.175-38 6.175H274.76z m476.699-183.114c-3.384 0-6.153-17.1-6.153-38V260.968c0-20.9-17.1-38-38-38h-65.237c-20.9 0-38-2.779-38-6.175 0-3.397 17.1-6.176 38-6.176h77.545c20.9 0 38 17.1 38 38v340.082c-0.001 20.901-2.77 38-6.155 38z" fill="#5AADC7" /><path d="M868.31 879.793c-6.658 0-14.154-3.523-20.044-9.434l-86.867-86.922c-10.201-10.201-12.709-23.918-5.729-31.217 6.642-7.021 20.988-4.58 30.739 5.184l86.856 86.918c10.201 10.182 12.747 23.895 5.761 31.201-2.641 2.793-6.346 4.27-10.716 4.27zM766.365 753.166c-2.014 0-4.864 0.451-6.921 2.637-4.864 5.068-2.266 16.039 5.638 23.953l86.866 86.92c4.94 4.941 11.056 7.893 16.361 7.893 2.024 0 4.875-0.449 6.948-2.637 4.854-5.078 2.238-16.043-5.665-23.938l-86.861-86.93c-4.934-4.945-11.049-7.898-16.366-7.898z m0 0" fill="#5BB6D2" /><path d="M755.825 756.408c-6.652 1.988 2.48-3.869-0.811 4.291-1.203 7.02 1.67 12.877 6.975 18.258l82.49 83.922c8.495 8.674 25.473 17.467 29.64 12.254 0.43-0.553 0.913-1.037 1.326-1.568l-119.62-117.157z m0 0" fill="#5BB6D2" /><path d="M770.274 603.269c-47.632-47.643-125.172-47.643-172.836 0.023-47.691 47.64-47.702 125.218-0.032 172.882 47.675 47.633 125.226 47.633 172.868 0 47.643-47.664 47.643-125.264 0-172.905" fill="#FFFFFF" /><path d="M683.849 817.105a126.68 126.68 0 0 1-90.126-37.258 126.54 126.54 0 0 1-37.274-90.131c0-34.086 13.257-66.097 37.296-90.116a126.568 126.568 0 0 1 90.12-37.274 126.604 126.604 0 0 1 90.083 37.249c49.688 49.692 49.688 130.567 0 180.272a126.57 126.57 0 0 1-90.099 37.258z m0.026-244.361c-31.293 0-60.685 12.163-82.753 34.229a116.224 116.224 0 0 0-34.257 82.753c0 31.305 12.15 60.697 34.219 82.764 22.074 22.063 51.461 34.197 82.765 34.197s60.685-12.135 82.742-34.197c45.641-45.65 45.641-119.898 0-165.526a116.116 116.116 0 0 0-82.716-34.22z m0 0" fill="#5BB6D2" /><path d="M750.961 661.936h-14.965v-5.213h14.965v5.213z m-30.595 0h-15.625v-5.213h15.625v5.213z m-31.245 0h-15.63v-5.213h15.63v5.213z m-31.261 0h-15.619v-5.213h15.619v5.213z m-31.233 0h-15.631v-5.213h15.631v5.213z m85.733-42.628h-15.625v-5.215h15.625v5.215z m-31.245 0h-15.619v-5.215h15.619v5.215z m-31.25 0h-15.63v-5.215h15.63v5.215z m115.545 98.346h-14.605v-5.215h14.605v5.215z m-30.224 0h-15.614v-5.215h15.614v5.215z m-31.246 0h-15.63v-5.215h15.63v5.215z m-31.25 0h-15.63v-5.215h15.63v5.215z m-31.26 0h-15.614v-5.215h15.614v5.215z m-31.234 0h-15.631v-5.215h15.631v5.215z m108.505 52.28h-15.63v-5.213h15.63v5.213z m-31.261 0h-15.614v-5.213h15.614v5.213z m-31.233 0h-15.631v-5.213h15.631v5.213z m0 0" fill="#CEE7EE" /></svg>